HIERARCHY
ROOT Pelvis
{
	OFFSET 0.000000 0.000000 0.000000
	CHANNELS 6 Xposition Yposition Zposition Zrotation Yrotation Xrotation 
	JOINT Left_hip
	{
		OFFSET 0.068973 -0.091024 -0.007589
		CHANNELS 3 Zrotation Yrotation Xrotation
		JOINT Left_knee
		{
			OFFSET 0.036482 -0.391037 -0.003979
			CHANNELS 3 Zrotation Yrotation Xrotation
			JOINT Left_ankle
			{
				OFFSET -0.012239 -0.415469 -0.043440
				CHANNELS 3 Zrotation Yrotation Xrotation
				JOINT Left_foot
				{
					OFFSET 0.023806 -0.058558 0.118702
					CHANNELS 3 Zrotation Yrotation Xrotation
					End Site
					{
						OFFSET 0.000000 0.000000 0.000000
					}
				}
			}
		}
	}
	JOINT Right_hip
	{
		OFFSET -0.066552 -0.090468 -0.003847
		CHANNELS 3 Zrotation Yrotation Xrotation
		JOINT Right_knee
		{
			OFFSET -0.042435 -0.398340 -0.006400
			CHANNELS 3 Zrotation Yrotation Xrotation
			JOINT Right_ankle
			{
				OFFSET 0.014931 -0.415421 -0.041327
				CHANNELS 3 Zrotation Yrotation Xrotation
				JOINT Right_foot
				{
					OFFSET -0.021472 -0.049410 0.121889
					CHANNELS 3 Zrotation Yrotation Xrotation
					End Site
					{
						OFFSET 0.000000 0.000000 0.000000
					}
				}
			}
		}
	}
	JOINT Spine1
	{
		OFFSET -0.002904 0.105700 -0.022855
		CHANNELS 3 Zrotation Yrotation Xrotation
		JOINT Spine2
		{
			OFFSET 0.004179 0.132554 -0.002501
			CHANNELS 3 Zrotation Yrotation Xrotation
			JOINT Spine3
			{
				OFFSET 0.001987 0.049603 0.025988
				CHANNELS 3 Zrotation Yrotation Xrotation
				JOINT Neck
				{
					OFFSET -0.003935 0.211336 -0.045638
					CHANNELS 3 Zrotation Yrotation Xrotation
					JOINT Head
					{
						OFFSET 0.003906 0.065991 0.051018
						CHANNELS 3 Zrotation Yrotation Xrotation
						End Site
						{
							OFFSET 0.000000 0.000000 0.000000
						}
					}
				}
				JOINT Left_collar
				{
					OFFSET 0.072882 0.117751 -0.036270
					CHANNELS 3 Zrotation Yrotation Xrotation
					JOINT Left_shoulder
					{
						OFFSET 0.082118 0.032630 -0.005771
						CHANNELS 3 Zrotation Yrotation Xrotation
						JOINT Left_elbow
						{
							OFFSET 0.263305 -0.015144 -0.028095
							CHANNELS 3 Zrotation Yrotation Xrotation
							JOINT Left_wrist
							{
								OFFSET 0.250741 0.010115 -0.000759
								CHANNELS 3 Zrotation Yrotation Xrotation
								JOINT Left_palm
								{
									OFFSET 0.080683 -0.009989 -0.013613
									CHANNELS 3 Zrotation Yrotation Xrotation
									End Site
									{
										OFFSET 0.000000 0.000000 0.000000
									}
								}
							}
						}
					}
				}
				JOINT Right_collar
				{
					OFFSET -0.074811 0.116132 -0.040385
					CHANNELS 3 Zrotation Yrotation Xrotation
					JOINT Right_shoulder
					{
						OFFSET -0.085089 0.032943 -0.007484
						CHANNELS 3 Zrotation Yrotation Xrotation
						JOINT Right_elbow
						{
							OFFSET -0.254763 -0.014219 -0.020321
							CHANNELS 3 Zrotation Yrotation Xrotation
							JOINT Right_wrist
							{
								OFFSET -0.256597 0.009233 -0.005063
								CHANNELS 3 Zrotation Yrotation Xrotation
								JOINT Right_palm
								{
									OFFSET -0.080528 -0.007219 -0.010379
									CHANNELS 3 Zrotation Yrotation Xrotation
									End Site
									{
										OFFSET 0.000000 0.000000 0.000000
									}
								}
							}
						}
					}
				}
			}
		}
	}
}
MOTION
Frames: 15
Frame Time: 0.100000
0.960103 0.126479 0.084316 -176.823413 -45.943468 25.186341 10.978047 12.443472 -81.116097 -10.295887 11.688299 53.282306 -4.434161 17.616643 -4.321849 10.023207 1.821872 -0.891226 -1.292547 -7.400432 -65.327594 5.504236 -9.388918 63.374616 8.124020 -18.188597 -23.586452 -23.877304 5.785826 -3.890076 1.790171 0.947200 70.063950 -6.327843 -6.142085 -0.062361 7.113369 4.520821 1.575924 -17.405298 0.863186 9.490098 21.390093 8.752040 -37.560351 16.487269 -44.599163 -12.130119 8.404955 -20.397593 -25.724363 7.508094 -27.941806 15.212462 5.928299 -1.308975 38.532917 -1.615539 -7.568690 -14.408536 -27.859560 49.196178 -9.222160 -20.001728 19.951977 -48.178104 -4.824742 5.129736 7.362460 -4.357741 3.552925 25.111741 3.509994 5.734328 -9.497532 
0.957337 0.127861 0.088373 -178.063202 -45.801959 25.493738 11.593928 12.250813 -80.985941 -9.989431 11.747050 54.158986 -3.667061 16.897361 -4.655642 9.911185 3.021754 -0.727457 -1.497928 -6.727793 -64.739393 4.901423 -9.880319 63.791841 9.227135 -17.283848 -23.670993 -25.852586 4.101759 -4.459076 1.105187 1.122241 69.860048 -5.691095 -6.933506 0.085866 7.512953 3.736600 1.780661 -17.989367 2.914924 10.364485 21.135164 9.085528 -37.420223 18.844048 -45.134608 -12.893936 6.519346 -19.360049 -24.427321 8.055933 -25.783846 16.384528 2.218727 -1.099055 35.628655 -1.547510 -6.488109 -14.292626 -29.761252 50.034733 -11.845617 -16.897101 23.111463 -45.051244 -5.582243 18.501165 7.276560 -0.811208 6.660753 16.595052 3.940274 3.514137 -7.817000 
0.953987 0.125975 0.093539 -178.772323 -45.788818 26.568051 11.705006 12.438633 -81.347820 -9.962448 12.160357 53.975637 -3.195699 16.313585 -4.941646 9.282756 3.713223 -0.108981 -1.486177 -6.855502 -64.673799 4.814084 -10.147624 62.846782 9.043093 -16.644102 -23.547091 -25.340428 3.122063 -4.351776 0.575626 1.313901 69.876084 -5.428434 -7.318131 -0.254424 7.508448 3.335929 1.922723 -18.202865 3.867044 11.012546 20.444691 8.940516 -37.712823 20.338095 -44.389747 -13.722514 6.321575 -20.051873 -24.983838 8.869918 -23.377497 15.941425 3.595342 -1.061455 35.571609 -0.176474 -5.387448 -13.255924 -30.283855 49.477982 -12.851740 -17.050103 26.038002 -45.654024 -7.245655 18.564026 7.573288 -3.516414 6.648645 17.581239 3.131212 2.623528 -7.126663 
0.950080 0.127470 0.100066 -178.611881 -45.873357 27.095037 11.314167 12.186776 -82.471438 -10.168718 12.266519 54.829053 -3.061640 16.827807 -5.689451 8.125368 3.286357 0.411083 -1.561245 -7.252507 -65.314609 5.161059 -9.496122 62.945206 8.559437 -17.112005 -24.236444 -23.874792 3.877404 -3.651519 1.007048 1.388290 70.122031 -6.125016 -7.056573 -0.823122 7.258532 3.665765 2.175424 -19.076618 3.373882 11.931913 20.534934 9.028170 -38.242176 20.764390 -45.322129 -14.721355 7.937417 -21.043359 -25.949878 8.010219 -21.642988 16.007426 8.185022 -3.117934 36.637715 0.780867 -5.196939 -12.322621 -31.124347 48.520735 -12.543654 -17.693782 22.439166 -46.480991 -6.029697 11.214765 8.899162 -8.203923 6.935401 21.677820 3.035371 3.422125 -7.735706 
0.946828 0.127501 0.105743 -179.294316 -46.057109 28.265655 11.301967 12.344334 -83.530999 -10.102145 12.419836 55.529198 -3.205057 17.170729 -6.026080 8.237881 2.769377 0.877187 -1.512315 -7.034504 -66.231637 5.191658 -9.242342 63.335953 8.577167 -17.220829 -23.641269 -23.681185 3.987913 -4.080476 0.603312 1.180358 70.443766 -6.314687 -7.629984 -1.449920 7.108273 3.464239 2.084662 -19.872916 2.896058 11.924610 20.759834 9.715716 -38.111970 19.816208 -46.196653 -14.079896 9.032706 -19.352159 -25.840795 6.701628 -19.439071 16.813287 9.701279 -4.699598 37.067902 1.710719 -4.777539 -11.039138 -31.351909 49.513640 -12.734422 -20.134050 22.402571 -48.186339 -4.816040 8.616711 9.845505 -10.333162 8.394012 23.936048 2.219921 2.774935 -6.822472 
0.944761 0.131048 0.107768 -179.192210 -46.362992 28.466530 11.575894 12.458744 -84.460838 -9.789196 13.413734 56.731267 -2.647379 16.280170 -6.094526 7.709950 3.658914 0.892145 -2.316450 -7.480162 -67.356972 4.885001 -9.949837 64.898196 9.596057 -15.736036 -23.510376 -25.495805 3.078282 -4.851534 0.241845 1.609991 70.408849 -6.380480 -7.995050 -1.473035 7.202605 3.080419 1.966380 -20.933677 3.858541 12.035914 20.927026 9.533189 -38.268484 20.430617 -47.617853 -14.407703 8.146812 -18.268876 -24.852997 7.109753 -19.555108 16.666006 6.918699 -5.600194 35.229773 1.703136 -4.301690 -11.173117 -31.908195 50.807084 -13.950859 -17.363844 23.222818 -45.307411 -5.031656 18.694016 10.968277 -7.245403 10.728895 19.913318 2.361516 1.622262 -6.240651 
0.941883 0.156157 0.107146 -178.020810 -45.907040 25.724443 11.591157 12.331477 -86.259212 -10.166112 14.451831 62.281902 -1.667584 16.107387 -8.161218 6.213964 4.270058 0.274225 -3.184514 -8.570706 -68.121085 4.680919 -10.296700 70.745763 9.389744 -15.537893 -27.373244 -24.967278 3.527792 -4.167286 0.866268 1.958347 70.709384 -6.602392 -7.405031 -0.537804 6.989110 3.595954 1.961493 -21.115389 3.843993 13.121010 21.026698 8.092279 -38.330028 20.871255 -48.325756 -14.882114 7.891185 -20.093808 -25.131487 6.921268 -21.964735 18.139391 8.814213 -6.220083 35.913218 1.006945 -4.684701 -12.429884 -30.629944 51.214956 -12.675871 -14.243044 21.870307 -43.934325 -6.289174 18.207621 11.008434 -9.924090 10.729704 19.837134 3.520945 2.435787 -7.173330 
0.944074 0.195783 0.105299 -176.120838 -44.849013 22.347374 11.178275 11.420738 -88.919210 -10.776193 14.944587 68.576446 -1.012758 17.274985 -10.866817 5.296970 3.483356 -0.332397 -3.922212 -8.868469 -70.236620 4.433215 -9.165009 78.897152 9.420808 -17.820696 -31.683087 -24.645550 5.680642 -3.870608 1.563242 1.458056 72.414812 -7.136489 -7.224511 -1.036685 6.732393 4.196495 2.265452 -22.147300 2.072320 12.922559 21.839436 8.263468 -38.525820 20.698687 -48.920689 -15.129933 10.175901 -20.548900 -26.714073 5.046603 -23.673568 19.832601 9.691797 -4.356226 38.878755 -0.200802 -6.379576 -13.693385 -29.646572 51.103703 -10.699169 -14.776450 18.185211 -45.455843 -5.201742 8.339160 10.962059 -9.481077 7.253347 23.216806 4.638618 4.723362 -8.819417 
0.943459 0.211446 0.102470 -174.646263 -43.732403 20.858313 10.390911 11.803720 -90.712101 -11.341180 16.510111 70.947697 -1.019833 16.678710 -11.142275 4.963550 3.288122 -0.582800 -4.833383 -9.949857 -71.925771 4.387329 -9.038410 83.028625 9.851455 -17.839480 -32.721641 -25.335862 6.108617 -4.235357 2.168560 0.696389 73.676155 -7.243273 -7.448993 -1.951851 6.788823 4.438822 2.559282 -22.357472 0.677085 13.435673 22.580977 8.328004 -38.844364 21.276019 -50.411662 -15.885404 11.187368 -20.352209 -27.762133 4.509578 -22.018087 19.681537 8.998273 -3.290306 39.970921 -0.281930 -7.175852 -14.298505 -30.804067 51.851633 -11.118215 -16.042140 16.081642 -46.945440 -4.088905 4.976595 11.008197 -8.001047 5.905232 25.691946 4.508067 5.528042 -10.319314 
0.941909 0.211224 0.104522 -174.733868 -43.567341 20.903568 10.603301 11.728218 -90.237102 -10.519177 16.955842 70.265097 -0.094122 14.945657 -10.516890 3.930068 5.432502 0.150846 -5.380397 -9.712841 -71.128900 3.099202 -9.596569 82.013456 9.631685 -16.017729 -32.683993 -25.250699 3.907460 -3.726780 2.113857 0.674374 73.555943 -6.833746 -7.631537 -1.144619 6.994590 4.111926 2.090109 -21.360819 2.188034 14.806295 22.382156 7.845490 -39.769455 22.521632 -50.794884 -16.815725 8.549395 -19.644717 -25.436792 6.515314 -22.433948 19.103940 7.386501 -3.942084 36.139084 -0.489687 -6.344604 -14.395889 -32.693528 52.544169 -13.458607 -13.515172 18.367911 -44.361896 -6.065677 17.639498 8.849744 -7.982959 8.529643 17.781053 5.191715 3.758685 -9.853212 
0.943546 0.193522 0.099541 -175.659784 -44.575053 23.093896 11.196774 11.596048 -89.729761 -9.880590 16.155057 67.349618 0.234455 15.170075 -9.066504 4.327037 5.995307 0.032141 -5.010071 -8.792053 -71.473729 3.718143 -9.932938 78.698348 11.062433 -15.341760 -31.357889 -28.226583 3.050070 -4.034068 1.654117 1.366351 72.476634 -6.612494 -7.713422 -1.390443 7.118985 3.948773 2.373844 -21.892460 2.507716 13.766806 22.995280 7.625132 -38.529451 22.671232 -50.566492 -16.704743 6.561522 -19.297601 -24.100613 7.751203 -23.059971 18.961493 6.780558 -3.989306 32.487349 -0.766613 -5.637614 -14.274899 -32.332955 52.851024 -14.611660 -10.460908 21.356513 -42.670272 -9.228454 31.372500 4.719943 -9.483458 10.528481 9.429031 6.031175 2.123354 -8.571790 
0.942674 0.186043 0.099986 -175.933376 -44.820817 23.867199 11.247229 11.581174 -89.140688 -9.867149 15.827143 65.668692 0.071236 15.346378 -8.923328 4.542032 5.697309 0.375476 -4.661041 -8.946228 -71.073489 3.947797 -10.161256 76.592007 10.745256 -15.299052 -30.791599 -27.783580 3.097683 -4.010549 1.326896 1.599292 72.185981 -6.670315 -7.766139 -1.354667 6.935593 3.815774 2.351732 -22.428639 3.142797 13.039237 22.158008 7.890285 -38.110638 22.583878 -49.627483 -16.469199 6.489961 -20.204412 -24.148666 7.519804 -22.419009 19.177195 7.024699 -3.707611 32.938124 -0.024471 -5.188028 -13.842923 -31.526581 51.938285 -14.338301 -11.204419 22.796571 -43.582765 -9.744138 27.607692 3.697060 -9.936911 9.571956 10.787786 5.482230 2.081457 -8.352462 
0.937437 0.174708 0.100219 -175.541120 -44.175283 23.843351 10.373060 11.811351 -88.866555 -10.889044 15.843881 64.356333 -0.944786 15.925438 -8.351561 5.122726 4.366600 0.237929 -4.311620 -9.297059 -70.749700 4.359932 -9.412351 75.357525 10.142665 -16.711086 -30.087425 -26.425687 4.473914 -3.846657 1.621498 0.928742 72.779314 -7.166057 -7.843290 -1.600228 6.710645 3.994328 2.492480 -22.681442 1.798223 13.146562 21.946017 8.476212 -38.849061 21.484571 -50.067375 -15.824754 8.755249 -20.423875 -26.090555 6.683045 -21.681001 18.628596 9.354941 -3.718594 36.043737 0.297166 -5.959317 -13.568347 -31.389893 51.336960 -12.952294 -14.421635 19.986828 -46.339534 -8.182561 15.297198 6.956617 -11.578837 7.636242 20.266164 4.841449 3.804349 -9.604798 
0.937410 0.161944 0.104550 -176.801833 -44.586715 25.152555 10.931510 11.578087 -87.690307 -10.674382 14.938539 62.391746 -1.425412 16.534992 -7.816727 6.571399 3.800953 0.345491 -3.745626 -8.204783 -69.439349 4.583953 -9.071838 72.020453 10.616182 -16.931631 -28.899136 -28.170334 4.361319 -4.360085 1.103753 0.848549 72.244315 -7.253415 -8.398515 -2.183175 6.717815 3.508941 2.887952 -23.491032 2.133167 12.701744 21.374257 10.174405 -37.959941 20.927004 -48.858289 -15.117717 6.911058 -20.233420 -25.993781 8.173955 -21.870728 16.130486 5.920793 -1.563375 34.726989 0.078301 -5.651593 -12.778217 -32.601770 50.332402 -14.417036 -15.176480 22.599348 -47.479633 -7.499804 15.500249 4.159913 -5.210248 5.388079 16.671525 4.337847 3.300378 -8.321081 
0.938313 0.145646 0.114030 -179.594043 -45.918810 27.543939 11.828406 11.758845 -85.658042 -9.699309 13.943759 60.440369 -1.681908 16.292485 -7.962419 7.671169 4.571513 1.167291 -3.211677 -6.910529 -66.522412 4.809225 -9.625074 66.955954 11.926989 -15.057055 -28.096782 -30.863373 2.101209 -4.565380 0.476966 1.390460 71.365713 -7.303149 -9.005904 -1.819735 6.978636 2.629941 2.790152 -24.057184 4.309618 12.723982 21.430171 11.143158 -39.303375 19.750259 -49.067199 -14.139828 5.392272 -16.779950 -23.664319 10.113904 -22.133244 14.919994 4.305246 -5.903826 29.677579 -0.498797 -4.209058 -12.705214 -34.201253 49.836385 -16.873095 -11.024996 21.552545 -43.802888 -11.262173 38.081288 -3.199347 -4.652669 13.924654 0.556625 5.422990 -0.088322 -5.294123 
